<svg width="32" height="64" viewBox="0 0 32 64" fill="none" xmlns="http://www.w3.org/2000/svg">
<path fill-rule="evenodd" clip-rule="evenodd" d="M16 32C24.8366 32 32 24.8366 32 16C32 7.16344 24.8366 0 16 0C7.16344 0 0 7.16344 0 16C0 24.8366 7.16344 32 16 32ZM7.53588 8.08369C7.61174 8.04953 7.69416 8.03238 7.77735 8.03345L24.4226 8.03915C24.5058 8.03808 24.5882 8.05523 24.664 8.08939C24.7399 8.12356 24.8074 8.17392 24.8617 8.23694C24.916 8.29996 24.9559 8.3741 24.9785 8.45416C25.0011 8.53423 25.0059 8.61827 24.9926 8.7004L22.5699 23.5528C22.5481 23.6877 22.4785 23.8103 22.3739 23.8982C22.2692 23.9861 22.1365 24.0334 21.9999 24.0317H10.3881C10.2059 24.0302 10.03 23.9645 9.89131 23.8462C9.75266 23.7278 9.66013 23.5644 9.62998 23.3847L7.20731 8.6947C7.19399 8.61257 7.19881 8.52853 7.22143 8.44846C7.24405 8.3684 7.28392 8.29425 7.33824 8.23124C7.39256 8.16822 7.46002 8.11786 7.53588 8.08369ZM14.2616 18.6476H17.9668L18.8647 13.4032H13.2583L14.2616 18.6476Z" fill="white"/>
<path fill-rule="evenodd" clip-rule="evenodd" d="M16 64C24.8366 64 32 56.8366 32 48C32 39.1634 24.8366 32 16 32C7.16344 32 0 39.1634 0 48C0 56.8366 7.16344 64 16 64ZM7.53588 40.0837C7.61174 40.0495 7.69416 40.0324 7.77735 40.0334L24.4226 40.0391C24.5058 40.0381 24.5882 40.0552 24.664 40.0894C24.7399 40.1236 24.8074 40.1739 24.8617 40.2369C24.916 40.3 24.9559 40.3741 24.9785 40.4542C25.0011 40.5342 25.0059 40.6183 24.9926 40.7004L22.5699 55.5528C22.5481 55.6877 22.4785 55.8103 22.3739 55.8982C22.2692 55.9861 22.1365 56.0334 21.9999 56.0317H10.3881C10.2059 56.0302 10.03 55.9645 9.89131 55.8462C9.75266 55.7278 9.66013 55.5644 9.62998 55.3847L7.20731 40.6947C7.19399 40.6126 7.19881 40.5285 7.22143 40.4485C7.24405 40.3684 7.28392 40.2943 7.33824 40.2312C7.39256 40.1682 7.46002 40.1179 7.53588 40.0837ZM14.2616 50.6476H17.9668L18.8647 45.4032H13.2583L14.2616 50.6476Z" fill="#C1B5F4"/>
</svg>
