<svg width="32" height="64" viewBox="0 0 32 64" fill="none" xmlns="http://www.w3.org/2000/svg">
<g clip-path="url(#clip0)">
<path fill-rule="evenodd" clip-rule="evenodd" d="M-0.000244141 15.9995C-0.000244141 7.16273 7.16297 -0.000488281 15.9998 -0.000488281C24.8365 -0.000488281 31.9998 7.16273 31.9998 15.9995C31.9998 22.903 27.6279 28.786 21.5016 31.0294V20.307H24.7221L25.1482 16.2819H25.1474L25.1476 16.2802H21.5016L21.5066 14.2669C21.5066 13.2169 21.6071 12.6554 23.1131 12.6554H25.1257V8.62778H25.1251V8.62608H21.9045C18.0364 8.62608 16.6764 10.5804 16.6764 13.8642V16.2802H14.2629V20.3053H14.2635V20.307H16.6764V31.9845C16.4517 31.9938 16.2268 31.9995 15.9998 31.9995C7.16297 31.9995 -0.000244141 24.8363 -0.000244141 15.9995Z" fill="white"/>
</g>
<g clip-path="url(#clip1)">
<path fill-rule="evenodd" clip-rule="evenodd" d="M-0.000244141 47.9995C-0.000244141 39.1627 7.16297 31.9995 15.9998 31.9995C24.8365 31.9995 31.9998 39.1627 31.9998 47.9995C31.9998 54.903 27.6279 60.786 21.5016 63.0294V52.307H24.7221L25.1482 48.2819H25.1474L25.1476 48.2802H21.5016L21.5066 46.2669C21.5066 45.2169 21.6071 44.6554 23.1131 44.6554H25.1257V40.6278H25.1251V40.6261H21.9045C18.0364 40.6261 16.6764 42.5804 16.6764 45.8642V48.2802H14.2629V52.3053H14.2635V52.307H16.6764V63.9845C16.4517 63.9938 16.2268 63.9995 15.9998 63.9995C7.16297 63.9995 -0.000244141 56.8363 -0.000244141 47.9995Z" fill="#C1B5F4"/>
</g>
<defs>
<clipPath id="clip0">
<rect width="32" height="32" fill="white"/>
</clipPath>
<clipPath id="clip1">
<rect width="32" height="32" fill="white" transform="translate(0 32)"/>
</clipPath>
</defs>
</svg>
