<svg width="32" height="64" viewBox="0 0 32 64" fill="none" xmlns="http://www.w3.org/2000/svg">
<path fill-rule="evenodd" clip-rule="evenodd" d="M16 0C24.8366 0 32 7.16344 32 16C32 24.5086 25.3584 31.466 16.9766 31.9707C18.3546 31.8876 19.6858 31.6298 20.9483 31.2192C20.2267 31.3076 19.967 30.8376 19.967 30.4308C19.967 30.2577 19.9691 29.9542 19.972 29.5487L19.9721 29.5417C19.978 28.716 19.987 27.47 19.987 26.0387C19.987 24.5446 19.475 23.568 18.901 23.0736C22.465 22.6774 26.206 21.3233 26.206 15.1732C26.206 13.4249 25.587 11.996 24.561 10.8762C24.726 10.471 25.275 8.84384 24.402 6.63929C24.402 6.63929 23.061 6.20895 20.007 8.28044C18.729 7.92511 17.36 7.74791 16.001 7.74097C14.64 7.74817 13.272 7.92511 11.995 8.28044C8.93896 6.20895 7.59496 6.63929 7.59496 6.63929C6.72496 8.84384 7.27396 10.471 7.43896 10.8762C6.41496 11.996 5.79196 13.4249 5.79196 15.1732C5.79196 21.3084 9.52696 22.6814 13.08 23.0856C12.623 23.4858 12.209 24.1914 12.064 25.2261C11.152 25.6365 8.83496 26.343 7.40696 23.8962C7.40696 23.8962 6.56196 22.3592 4.95696 22.246C4.95696 22.246 3.39396 22.2259 4.84696 23.2196C4.84696 23.2196 5.89596 23.712 6.62296 25.5612C6.62296 25.5612 7.56196 28.6753 12.013 27.7077C12.017 28.3938 12.0228 28.9931 12.0273 29.4652L12.0279 29.5274C12.032 29.9434 12.035 30.2543 12.035 30.4306C12.035 30.8355 11.7688 31.3045 11.0485 31.2182C12.3414 31.6389 13.7065 31.8995 15.1202 31.9762C6.69282 31.5195 0 24.5414 0 16C0 7.16344 7.16344 0 16 0Z" fill="white"/>
<path fill-rule="evenodd" clip-rule="evenodd" d="M16 32C24.8366 32 32 39.1634 32 48C32 56.5086 25.3584 63.466 16.9766 63.9707C18.3546 63.8876 19.6858 63.6298 20.9483 63.2192C20.2267 63.3076 19.967 62.8376 19.967 62.4308C19.967 62.2577 19.9691 61.9542 19.972 61.5487L19.9721 61.5417C19.978 60.716 19.987 59.47 19.987 58.0387C19.987 56.5446 19.475 55.568 18.901 55.0736C22.465 54.6774 26.206 53.3233 26.206 47.1732C26.206 45.4249 25.587 43.996 24.561 42.8762C24.726 42.471 25.275 40.8438 24.402 38.6393C24.402 38.6393 23.061 38.2089 20.007 40.2804C18.729 39.9251 17.36 39.7479 16.001 39.741C14.64 39.7482 13.272 39.9251 11.995 40.2804C8.93896 38.2089 7.59496 38.6393 7.59496 38.6393C6.72496 40.8438 7.27396 42.471 7.43896 42.8762C6.41496 43.996 5.79196 45.4249 5.79196 47.1732C5.79196 53.3084 9.52696 54.6814 13.08 55.0856C12.623 55.4858 12.209 56.1914 12.064 57.2261C11.152 57.6365 8.83496 58.343 7.40696 55.8962C7.40696 55.8962 6.56196 54.3592 4.95696 54.246C4.95696 54.246 3.39396 54.2259 4.84696 55.2196C4.84696 55.2196 5.89596 55.712 6.62296 57.5612C6.62296 57.5612 7.56196 60.6753 12.013 59.7077C12.017 60.3938 12.0228 60.9931 12.0273 61.4652L12.0279 61.5274C12.032 61.9434 12.035 62.2543 12.035 62.4306C12.035 62.8355 11.7688 63.3045 11.0485 63.2182C12.3414 63.6389 13.7065 63.8995 15.1202 63.9762C6.69282 63.5195 0 56.5414 0 48C0 39.1634 7.16344 32 16 32Z" fill="#C1B5F4"/>
</svg>
