<svg width="32" height="64" viewBox="0 0 32 64" fill="none" xmlns="http://www.w3.org/2000/svg">
<path d="M20.7204 8.74609H11.406C9.91847 8.74609 8.70972 9.95484 8.70972 11.4423V20.7554C8.70972 22.2429 9.9184 23.4533 11.406 23.4533H20.7205C22.2063 23.4533 23.4168 22.2429 23.4168 20.7554V11.4423C23.4167 9.95478 22.2063 8.74609 20.7204 8.74609ZM16.0623 20.9407C13.3933 20.9407 11.2207 18.768 11.2207 16.0989C11.2207 13.4298 13.3933 11.2572 16.0623 11.2572C18.7331 11.2572 20.904 13.4298 20.904 16.0989C20.904 18.768 18.7314 20.9407 16.0623 20.9407ZM21.0605 12.2583C20.428 12.2583 19.9147 11.7452 19.9147 11.1127C19.9147 10.4818 20.428 9.96691 21.0605 9.96691C21.6912 9.96691 22.2063 10.4818 22.2063 11.1127C22.2063 11.7452 21.6912 12.2583 21.0605 12.2583Z" fill="white"/>
<path d="M16.0624 13.3041C14.5222 13.3041 13.2676 14.557 13.2676 16.0989C13.2676 17.6408 14.5222 18.8955 16.0624 18.8955C17.6044 18.8955 18.859 17.6408 18.859 16.0989C18.859 14.5586 17.6044 13.3041 16.0624 13.3041Z" fill="white"/>
<path d="M16.0625 0.431396C7.43312 0.431396 0.4375 7.42702 0.4375 16.0564C0.4375 24.6858 7.43312 31.6814 16.0625 31.6814C24.6919 31.6814 31.6875 24.6858 31.6875 16.0564C31.6875 7.42708 24.6919 0.431396 16.0625 0.431396ZM25.462 20.7553C25.462 23.3716 23.3353 25.4984 20.7206 25.4984H11.4061C8.7915 25.4984 6.66306 23.3717 6.66306 20.7553V11.4423C6.66306 8.8279 8.7915 6.69946 11.4061 6.69946H20.7206C23.3353 6.69946 25.462 8.8279 25.462 11.4423V20.7553Z" fill="white"/>
<path d="M20.7204 40.7461H11.406C9.91847 40.7461 8.70972 41.9548 8.70972 43.4423V52.7554C8.70972 54.2429 9.9184 55.4533 11.406 55.4533H20.7205C22.2063 55.4533 23.4168 54.2429 23.4168 52.7554V43.4423C23.4167 41.9548 22.2063 40.7461 20.7204 40.7461ZM16.0623 52.9407C13.3933 52.9407 11.2207 50.768 11.2207 48.0989C11.2207 45.4298 13.3933 43.2572 16.0623 43.2572C18.7331 43.2572 20.904 45.4298 20.904 48.0989C20.904 50.768 18.7314 52.9407 16.0623 52.9407ZM21.0605 44.2583C20.428 44.2583 19.9147 43.7452 19.9147 43.1127C19.9147 42.4818 20.428 41.9669 21.0605 41.9669C21.6912 41.9669 22.2063 42.4818 22.2063 43.1127C22.2063 43.7452 21.6912 44.2583 21.0605 44.2583Z" fill="#C1B5F4"/>
<path d="M16.0624 45.3041C14.5222 45.3041 13.2676 46.557 13.2676 48.0989C13.2676 49.6408 14.5222 50.8955 16.0624 50.8955C17.6044 50.8955 18.859 49.6408 18.859 48.0989C18.859 46.5586 17.6044 45.3041 16.0624 45.3041Z" fill="#C1B5F4"/>
<path d="M16.0625 32.4314C7.43312 32.4314 0.4375 39.427 0.4375 48.0564C0.4375 56.6858 7.43312 63.6814 16.0625 63.6814C24.6919 63.6814 31.6875 56.6858 31.6875 48.0564C31.6875 39.4271 24.6919 32.4314 16.0625 32.4314ZM25.462 52.7553C25.462 55.3716 23.3353 57.4984 20.7206 57.4984H11.4061C8.7915 57.4984 6.66306 55.3717 6.66306 52.7553V43.4423C6.66306 40.8279 8.7915 38.6995 11.4061 38.6995H20.7206C23.3353 38.6995 25.462 40.8279 25.462 43.4423V52.7553Z" fill="#C1B5F4"/>
</svg>
