<svg width="32" height="64" viewBox="0 0 32 64" fill="none" xmlns="http://www.w3.org/2000/svg">
<path d="M16.0111 0.0457764C7.2003 0.0457764 0.0571289 7.18895 0.0571289 15.9997C0.0571289 24.8107 7.20002 31.9542 16.0111 31.9542C24.8224 31.9542 31.9658 24.8107 31.9658 15.9997C31.9655 7.18895 24.8224 0.0457764 16.0111 0.0457764ZM9.39092 7.24136C10.4762 7.24136 11.3564 8.04412 11.3564 9.03447C11.3564 10.0248 10.4762 10.8276 9.39092 10.8276C8.30513 10.8276 7.4254 10.0248 7.4254 9.03447C7.4254 8.04412 8.30513 7.24136 9.39092 7.24136ZM11.3713 22.5779H7.48775V12.4441H11.3713V22.5779ZM24.568 22.5779H20.6657V17.0055C20.6657 16.3694 20.5476 15.9192 20.3123 15.6549C20.0767 15.3912 19.746 15.2587 19.3203 15.2587C18.8494 15.2587 18.4673 15.4369 18.1749 15.7934C17.8822 16.1498 17.7363 16.7889 17.7363 17.7114V22.5779H13.8524V12.4441H17.4687V14.0946C18.0091 13.4207 18.5564 12.9387 19.1098 12.6491C19.6632 12.3597 20.3371 12.2152 21.1324 12.2152C22.2077 12.2152 23.0488 12.5346 23.6566 13.1741C24.2637 13.8132 24.5677 14.8008 24.5677 16.1368V22.5779H24.568Z" fill="white"/>
<path d="M16.0111 32.0458C7.2003 32.0458 0.0571289 39.1889 0.0571289 47.9997C0.0571289 56.8107 7.20002 63.9542 16.0111 63.9542C24.8224 63.9542 31.9658 56.8107 31.9658 47.9997C31.9655 39.1889 24.8224 32.0458 16.0111 32.0458ZM9.39092 39.2414C10.4762 39.2414 11.3564 40.0441 11.3564 41.0345C11.3564 42.0248 10.4762 42.8276 9.39092 42.8276C8.30513 42.8276 7.4254 42.0248 7.4254 41.0345C7.4254 40.0441 8.30513 39.2414 9.39092 39.2414ZM11.3713 54.5779H7.48775V44.4441H11.3713V54.5779ZM24.568 54.5779H20.6657V49.0055C20.6657 48.3694 20.5476 47.9192 20.3123 47.6549C20.0767 47.3912 19.746 47.2587 19.3203 47.2587C18.8494 47.2587 18.4673 47.4369 18.1749 47.7934C17.8822 48.1498 17.7363 48.7889 17.7363 49.7114V54.5779H13.8524V44.4441H17.4687V46.0946C18.0091 45.4207 18.5564 44.9387 19.1098 44.6491C19.6632 44.3597 20.3371 44.2152 21.1324 44.2152C22.2077 44.2152 23.0488 44.5346 23.6566 45.1741C24.2637 45.8132 24.5677 46.8008 24.5677 48.1368V54.5779H24.568Z" fill="#C1B5F4"/>
</svg>
