<svg width="32" height="64" viewBox="0 0 32 64" fill="none" xmlns="http://www.w3.org/2000/svg">
<path d="M16 0C7.164 0 0 7.164 0 16C0 24.836 7.164 32 16 32C24.836 32 32 24.836 32 16C32 7.164 24.836 0 16 0ZM23.8587 10.9613L21.232 23.3347C21.0387 24.212 20.516 24.4253 19.7867 24.012L15.7867 21.0653L13.8587 22.924C13.672 23.164 13.3827 23.3173 13.0587 23.3173C13.056 23.3173 13.0547 23.3173 13.052 23.3173L13.336 19.2453L20.7493 12.5493C21.0693 12.2653 20.6773 12.104 20.252 12.388L11.0933 18.156L7.14667 16.924C6.29333 16.6533 6.26933 16.0707 7.32667 15.652L22.748 9.708C23.4653 9.44667 24.0893 9.87867 23.8573 10.9627L23.8587 10.9613Z" fill="white"/>
<path d="M16 32C7.164 32 0 39.164 0 48C0 56.836 7.164 64 16 64C24.836 64 32 56.836 32 48C32 39.164 24.836 32 16 32ZM23.8587 42.9613L21.232 55.3347C21.0387 56.212 20.516 56.4253 19.7867 56.012L15.7867 53.0653L13.8587 54.924C13.672 55.164 13.3827 55.3173 13.0587 55.3173C13.056 55.3173 13.0547 55.3173 13.052 55.3173L13.336 51.2453L20.7493 44.5493C21.0693 44.2653 20.6773 44.104 20.252 44.388L11.0933 50.156L7.14667 48.924C6.29333 48.6533 6.26933 48.0707 7.32667 47.652L22.748 41.708C23.4653 41.4467 24.0893 41.8787 23.8573 42.9627L23.8587 42.9613Z" fill="#C1B5F4"/>
</svg>
