<svg width="34" height="34" viewBox="0 0 34 34" fill="none" xmlns="http://www.w3.org/2000/svg">
<path d="M17.0005 8.44189C15.3079 8.44189 13.6533 8.94382 12.2459 9.8842C10.8385 10.8246 9.74158 12.1612 9.09384 13.725C8.44609 15.2888 8.27661 17.0095 8.60683 18.6697C8.93705 20.3298 9.75213 21.8547 10.949 23.0516C12.1459 24.2485 13.6708 25.0635 15.3309 25.3938C16.991 25.724 18.7118 25.5545 20.2756 24.9067C21.8394 24.259 23.176 23.1621 24.1164 21.7547C25.0568 20.3473 25.5587 18.6927 25.5587 17C25.5587 15.8762 25.3374 14.7633 24.9073 13.725C24.4772 12.6866 23.8468 11.7432 23.0521 10.9485C22.2574 10.1538 21.314 9.52338 20.2756 9.0933C19.2373 8.66322 18.1244 8.44187 17.0005 8.44189ZM17.0005 22.556C15.9017 22.556 14.8275 22.2301 13.9138 21.6196C13.0001 21.0091 12.288 20.1414 11.8675 19.1262C11.447 18.1109 11.3369 16.9938 11.5513 15.916C11.7657 14.8383 12.2949 13.8483 13.0719 13.0713C13.8489 12.2943 14.8389 11.7651 15.9167 11.5507C16.9944 11.3364 18.1116 11.4464 19.1268 11.8669C20.142 12.2875 21.0097 12.9996 21.6202 13.9133C22.2307 14.827 22.5566 15.9012 22.5566 17C22.5566 17.7297 22.413 18.4522 22.1338 19.1263C21.8546 19.8005 21.4454 20.413 20.9294 20.9289C20.4135 21.4448 19.801 21.8541 19.1268 22.1333C18.4527 22.4124 17.7302 22.5561 17.0005 22.556Z" fill="url(#paint0_linear)"/>
<path d="M33.5664 10.1287C33.5391 8.74613 33.2774 7.37823 32.7923 6.08326C32.3731 4.9714 31.7171 3.96399 30.8699 3.13082C30.0379 2.28273 29.0308 1.62662 27.9188 1.20837C26.6239 0.723013 25.2559 0.461252 23.8733 0.434274C22.0963 0.353374 21.5282 0.333374 17.002 0.333374C12.4759 0.333374 11.9074 0.352141 10.1293 0.434274C8.74673 0.461595 7.37884 0.723344 6.08387 1.20837C4.9717 1.627 3.96416 2.28305 3.13143 3.13082C2.28287 3.96289 1.62674 4.97062 1.2091 6.08326C0.724077 7.37824 0.462328 8.74613 0.435001 10.1287C0.352851 11.9057 0.333984 12.4739 0.333984 17C0.333984 21.5262 0.352851 22.0943 0.434968 23.8713C0.462299 25.2539 0.724059 26.6218 1.2091 27.9168C1.62686 29.0294 2.28298 30.0371 3.13143 30.8693C3.96457 31.7165 4.97199 32.3724 6.08387 32.7916C7.37888 33.2765 8.74675 33.5382 10.1293 33.5657C11.9074 33.6465 12.4745 33.6667 17.0007 33.6667C21.5268 33.6667 22.0949 33.6478 23.872 33.5657C25.2546 33.5384 26.6225 33.2766 27.9174 32.7916C29.0248 32.3635 30.0304 31.7087 30.8699 30.8692C31.7094 30.0298 32.3642 29.0241 32.7923 27.9168C33.2779 26.622 33.5397 25.254 33.5664 23.8713C33.6473 22.093 33.666 21.5262 33.666 17C33.666 12.4739 33.6473 11.9057 33.5664 10.1287ZM30.5681 23.7355C30.5553 24.7924 30.3613 25.8392 29.9947 26.8306C29.7173 27.5493 29.2925 28.202 28.7476 28.7467C28.2027 29.2913 27.5499 29.7159 26.831 29.9929C25.8399 30.3604 24.7928 30.5543 23.7359 30.5663C21.9791 30.647 21.4514 30.6632 17.0006 30.6632C12.5497 30.6632 12.0235 30.647 10.2672 30.5663C9.21025 30.5542 8.16325 30.3602 7.17208 29.9929C6.44816 29.7254 5.79318 29.2995 5.25502 28.7463C4.701 28.2093 4.27492 27.5546 4.00835 26.8306C3.64089 25.8395 3.44694 24.7925 3.43502 23.7355C3.35418 21.9787 3.3381 21.451 3.3381 17.0002C3.3381 12.5493 3.35558 12.0231 3.43502 10.2648C3.44833 9.20802 3.64224 8.16127 4.00835 7.16982C4.27587 6.44589 4.70181 5.79091 5.25502 5.25276C5.79224 4.69842 6.4475 4.27231 7.17208 4.00609C8.16322 3.63867 9.21024 3.44473 10.2672 3.43276C12.024 3.35194 12.5517 3.33584 17.0006 3.33584C21.4494 3.33584 21.9776 3.35332 23.7359 3.43276C24.7927 3.44607 25.8395 3.63998 26.831 4.00609C27.5501 4.28318 28.2031 4.70787 28.7481 5.25278C29.293 5.7977 29.7177 6.45075 29.9947 7.16984C30.3622 8.16093 30.5561 9.20791 30.5681 10.2648C30.6489 12.0232 30.665 12.5494 30.665 17.0002C30.665 21.4509 30.6489 21.9772 30.5681 23.7355H30.5681Z" fill="url(#paint1_linear)"/>
<path d="M25.8985 6.10339H25.8977C25.3674 6.10349 24.8589 6.31424 24.4839 6.68927C24.109 7.06431 23.8984 7.57292 23.8984 8.10323C23.8985 8.63354 24.1092 9.14211 24.4842 9.51708C24.8592 9.89204 25.3678 10.1027 25.8981 10.1027C26.4284 10.1027 26.937 9.89204 27.312 9.51708C27.687 9.14211 27.8977 8.63354 27.8977 8.10323C27.8978 7.57292 27.6872 7.06431 27.3122 6.68927C26.9373 6.31424 26.4288 6.10349 25.8985 6.10339Z" fill="url(#paint2_linear)"/>
<defs>
<linearGradient id="paint0_linear" x1="8.44287" y1="17" x2="24.0651" y2="17" gradientUnits="userSpaceOnUse">
<stop stop-color="#000092"/>
<stop offset="1" stop-color="#FF00F3"/>
</linearGradient>
<linearGradient id="paint1_linear" x1="0.334941" y1="16.9999" x2="30.7575" y2="16.9999" gradientUnits="userSpaceOnUse">
<stop stop-color="#000092"/>
<stop offset="1" stop-color="#FF00F3"/>
</linearGradient>
<linearGradient id="paint2_linear" x1="23.8986" y1="8.10303" x2="27.5488" y2="8.10303" gradientUnits="userSpaceOnUse">
<stop stop-color="#000092"/>
<stop offset="1" stop-color="#FF00F3"/>
</linearGradient>
</defs>
</svg>
