<svg width="38" height="34" viewBox="0 0 38 34" fill="none" xmlns="http://www.w3.org/2000/svg">
<path d="M36.1081 1.04618C35.6336 0.6514 35.0609 0.392669 34.451 0.297518C33.8411 0.202367 33.2168 0.274357 32.6446 0.505827L2.77642 12.5647C2.13768 12.8275 1.59395 13.2784 1.21743 13.8574C0.840898 14.4365 0.649371 15.1163 0.668267 15.8068C0.687163 16.4972 0.915587 17.1656 1.32322 17.7232C1.73086 18.2808 2.29842 18.7012 2.95059 18.9287L8.99226 21.0299L12.3598 32.166C12.4055 32.3147 12.4719 32.4563 12.5571 32.5866C12.57 32.6066 12.5882 32.6215 12.6019 32.6409C12.7003 32.7782 12.8191 32.8994 12.9543 33.0005C12.9928 33.0298 13.0296 33.0573 13.0707 33.0833C13.2289 33.1883 13.4041 33.2651 13.5886 33.3102L13.6083 33.3119L13.6195 33.3166C13.7304 33.3392 13.8432 33.3507 13.9564 33.3508C13.9673 33.3508 13.9769 33.3456 13.9877 33.3454C14.1585 33.3424 14.3278 33.313 14.4895 33.2582C14.5272 33.2454 14.5594 33.224 14.5959 33.2085C14.7166 33.1585 14.8309 33.0944 14.9364 33.0176C15.021 32.9463 15.1055 32.8751 15.1901 32.8039L19.6937 27.8316L26.4108 33.0351C27.0022 33.4955 27.7301 33.7457 28.4795 33.7463C29.2648 33.7453 30.0259 33.4744 30.6352 32.9789C31.2444 32.4834 31.6648 31.7936 31.8259 31.025L37.2637 4.33069C37.387 3.72989 37.3445 3.10689 37.141 2.52834C36.9374 1.94979 36.5804 1.43747 36.1081 1.04618ZM14.6173 21.5605C14.3862 21.7907 14.2282 22.084 14.1632 22.4036L13.6473 24.9103L12.3405 20.5885L19.116 17.0602L14.6173 21.5605ZM28.4535 30.4L20.5157 24.2509C20.1836 23.9943 19.767 23.8722 19.3489 23.909C18.9309 23.9458 18.542 24.1388 18.2598 24.4494L16.8175 26.0414L17.3272 23.564L29.1322 11.759C29.414 11.4776 29.5857 11.1046 29.6161 10.7076C29.6466 10.3105 29.5339 9.91567 29.2984 9.59455C29.0629 9.27344 28.7201 9.0473 28.3323 8.95709C27.9444 8.86687 27.537 8.91856 27.184 9.10278L10.2418 17.9238L4.03457 15.6523L33.9987 3.66496L28.4535 30.4Z" fill="url(#paint0_linear)"/>
<defs>
<linearGradient id="paint0_linear" x1="0.668045" y1="17.0014" x2="34.1333" y2="17.0014" gradientUnits="userSpaceOnUse">
<stop stop-color="#000092"/>
<stop offset="1" stop-color="#FF00F3"/>
</linearGradient>
</defs>
</svg>
