<svg width="42" height="40" viewBox="0 0 42 40" fill="none" xmlns="http://www.w3.org/2000/svg">
<g clip-path="url(#clip0)">
<path fill-rule="evenodd" clip-rule="evenodd" d="M11.0736 34.1573C11.357 34.1573 11.6386 34.229 11.8886 34.3706C14.582 35.8823 17.382 36.6823 19.9853 36.6823C29.0503 36.6823 36.7103 29.0056 36.7103 19.9206C36.7103 10.7823 29.207 3.34896 19.9853 3.34896C10.827 3.34896 3.37698 10.7823 3.37698 19.9206C3.37698 22.8223 4.18031 25.7223 5.70198 28.309C5.93198 28.699 5.99364 29.1656 5.87364 29.6023L4.09864 35.9773L10.6386 34.2156C10.782 34.1756 10.9286 34.1573 11.0736 34.1573ZM1.71031 40.0156C1.27198 40.0156 0.843642 39.8423 0.526976 39.5223C0.105309 39.0973 -0.0563579 38.479 0.103642 37.9023L2.47698 29.374C0.883642 26.4356 0.0436421 23.1823 0.0436421 19.9206C0.0436421 8.94396 8.98864 0.015625 19.9853 0.015625C31.0436 0.015625 40.0436 8.94396 40.0436 19.9206C40.0436 30.8123 30.857 40.0156 19.9853 40.0156C17.012 40.0156 13.8736 39.184 10.8636 37.6056L2.14531 39.9573C2.00031 39.9956 1.85531 40.0156 1.71031 40.0156Z" fill="url(#paint0_linear)"/>
<path fill-rule="evenodd" clip-rule="evenodd" d="M14.8661 11.7068C14.5961 11.9518 14.2228 12.3402 14.0561 12.5135C13.8411 12.7352 13.6661 12.9102 13.5778 12.9868C13.2628 13.2585 12.5245 13.9718 12.3345 14.8102C12.0211 16.2135 12.6128 18.0718 13.9628 19.9118C15.6428 22.2018 18.4478 25.4085 23.4178 26.8135C24.5411 27.1318 25.4945 27.0235 26.3361 26.4852C26.8028 26.1868 27.1428 25.6868 27.2645 25.1168C27.2945 24.9768 27.3411 24.8418 27.4061 24.7152L27.9795 23.5802L25.7545 22.5535L24.6978 23.9235C24.1395 24.6452 23.1861 24.9318 22.3245 24.6285C21.1145 24.2035 17.0028 22.4818 14.7445 18.1318C14.3461 17.3568 14.4511 16.4335 15.0145 15.7752L16.0895 14.5318L14.8661 11.7068ZM24.6011 30.3218C23.9211 30.3218 23.2228 30.2235 22.5111 30.0218C15.8645 28.1418 12.4095 23.4302 11.2745 21.8818C9.32781 19.2285 8.54948 16.4585 9.08281 14.0802C9.47448 12.3402 10.6961 11.0718 11.3911 10.4702C11.4345 10.4285 11.5361 10.3235 11.6578 10.1968C12.8328 8.98017 13.5495 8.3035 14.5361 8.35016L15.7195 8.41516H15.7211C16.5895 8.4635 17.3428 8.99017 17.6878 9.79017L19.4145 13.8268C19.7545 14.6185 19.6095 15.5568 19.0428 16.2118L18.1045 17.2968C19.4645 19.4418 21.4245 20.6052 22.6228 21.1552L23.6278 19.8518C24.2778 19.0052 25.4145 18.7202 26.3895 19.1752L30.3861 21.0168C31.3561 21.4635 31.8811 22.5085 31.6611 23.5568C31.6328 23.6985 31.5828 23.8368 31.5178 23.9668L30.4695 26.0435C30.1228 27.3835 29.2795 28.5585 28.1311 29.2935C27.0611 29.9768 25.8661 30.3218 24.6011 30.3218Z" fill="url(#paint1_linear)"/>
</g>
<defs>
<linearGradient id="paint0_linear" x1="0.0441172" y1="20.0154" x2="36.5532" y2="20.0154" gradientUnits="userSpaceOnUse">
<stop stop-color="#000092"/>
<stop offset="1" stop-color="#FF00F3"/>
</linearGradient>
<linearGradient id="paint1_linear" x1="8.9196" y1="19.3348" x2="29.7221" y2="19.3348" gradientUnits="userSpaceOnUse">
<stop stop-color="#000092"/>
<stop offset="1" stop-color="#FF00F3"/>
</linearGradient>
<clipPath id="clip0">
<rect width="41.6667" height="40" fill="white"/>
</clipPath>
</defs>
</svg>
